<svg width="16" height="16" viewBox="0 0 16 16" fill="none" xmlns="http://www.w3.org/2000/svg">
    <path fill-rule="evenodd" clip-rule="evenodd" d="M5.25 5.497C5.05109 5.497 4.86032 5.41798 4.71967 5.27733C4.57902 5.13668 4.5 4.94591 4.5 4.747V4C4.10218 4 3.72064 4.15804 3.43934 4.43934C3.15804 4.72065 3 5.10218 3 5.5V6.5H13V5.5C13 5.10218 12.842 4.72065 12.5607 4.43934C12.2794 4.15804 11.8978 4 11.5 4V4.75C11.5 4.94891 11.421 5.13968 11.2803 5.28033C11.1397 5.42098 10.9489 5.5 10.75 5.5C10.5511 5.5 10.3603 5.42098 10.2197 5.28033C10.079 5.13968 10 4.94891 10 4.75V4H6V4.747C6 4.94591 5.92098 5.13668 5.78033 5.27733C5.63968 5.41798 5.44891 5.497 5.25 5.497ZM10 2.5H6V1.748C6 1.54909 5.92098 1.35832 5.78033 1.21767C5.63968 1.07702 5.44891 0.998001 5.25 0.998001C5.05109 0.998001 4.86032 1.07702 4.71967 1.21767C4.57902 1.35832 4.5 1.54909 4.5 1.748V2.5C3.70435 2.5 2.94129 2.81607 2.37868 3.37868C1.81607 3.94129 1.5 4.70435 1.5 5.5V11.5C1.5 12.2957 1.81607 13.0587 2.37868 13.6213C2.94129 14.1839 3.70435 14.5 4.5 14.5H11.5C12.2956 14.5 13.0587 14.1839 13.6213 13.6213C14.1839 13.0587 14.5 12.2957 14.5 11.5V5.5C14.5 4.70435 14.1839 3.94129 13.6213 3.37868C13.0587 2.81607 12.2956 2.5 11.5 2.5V1.75C11.5 1.55109 11.421 1.36032 11.2803 1.21967C11.1397 1.07902 10.9489 1 10.75 1C10.5511 1 10.3603 1.07902 10.2197 1.21967C10.079 1.36032 10 1.55109 10 1.75V2.5ZM3 8V11.5C3 11.8978 3.15804 12.2794 3.43934 12.5607C3.72064 12.842 4.10218 13 4.5 13H11.5C11.8978 13 12.2794 12.842 12.5607 12.5607C12.842 12.2794 13 11.8978 13 11.5V8H3Z" fill="#212121"/>
</svg>
