<svg width="172" height="42" viewBox="0 0 172 42" fill="none" xmlns="http://www.w3.org/2000/svg">
    <g clip-path="url(#clip0_2_12)">
        <path d="M171.097 40.4918C167.696 41.3727 167.158 41.068 167.16 37.9726C167.163 33.534 164.806 30.535 161.47 27.8576C158.063 30.5728 155.568 33.6382 155.799 38.2115C155.887 39.9471 155.486 41.1374 153.38 41.0539C151.332 40.9727 151.314 39.6524 151.345 38.1507C151.429 34.0777 152.718 30.4906 155.593 27.5593C156.431 26.7051 157.424 26.0028 158.458 25.1372C157.067 23.6672 155.985 22.5383 154.919 21.3954C152.372 18.6655 151.405 15.3689 151.331 11.7028C151.3 10.1349 151.787 9.13248 153.442 9.08135C155.03 9.03224 155.905 9.849 155.776 11.4869C155.411 16.124 158.037 19.1453 161.437 21.9997C164.674 19.3272 167.367 16.4195 167.14 11.8293C167.059 10.1791 167.576 9.05375 169.424 9.0743C171.36 9.0958 171.531 10.382 171.528 11.947C171.52 15.9826 170.073 19.3711 167.249 22.2164C166.402 23.0694 165.598 23.9641 164.643 24.9792C169.456 29.0185 172.353 33.8427 171.097 40.4918Z" fill="#F8F8F9"/>
        <path d="M144.727 20.2664C144.727 26.4258 144.728 32.3052 144.727 38.1847C144.726 39.5826 144.995 41.0492 142.772 41.0889C140.657 41.1266 140.643 39.8793 140.648 38.3516C140.675 29.4858 140.679 20.6198 140.644 11.7541C140.638 10.295 140.796 9.12195 142.608 9.07363C144.612 9.0202 144.775 10.3084 144.742 11.8675C144.685 14.5728 144.727 17.28 144.727 20.2664Z" fill="#FEFEFE"/>
        <path d="M45.9103 23.632C45.9104 16.7254 45.9898 10.0973 45.8666 3.47297C45.8251 1.24448 46.5914 0.483428 48.7701 0.564149C52.127 0.688525 55.4925 0.561226 58.8531 0.610063C64.2232 0.688088 68.0173 3.20174 69.5003 7.5866C71.3979 13.1971 70.0376 18.1427 65.6592 21.5828C65.4446 21.7518 65.2821 21.9882 65.0513 22.242C68.7316 24.5831 70.0376 28.1263 70.1536 32.2475C70.2085 34.2061 70.1127 36.1707 70.2152 38.1257C70.3155 40.0321 69.7939 41.1123 67.6212 41.1509C65.3606 41.1911 64.7174 40.1574 64.7516 38.0775C64.7885 35.8468 64.6317 33.6039 64.4165 31.3801C63.9537 26.5944 61.2959 24.1989 56.5712 24.1848C54.9096 24.1798 53.248 24.184 51.3316 24.184C51.3316 28.8688 51.2826 33.3208 51.3534 37.7708C51.3861 39.825 51.031 41.182 48.4938 41.1543C46.0781 41.128 45.8424 39.8518 45.8807 37.9113C45.9728 33.2465 45.9104 28.5787 45.9103 23.632ZM63.4921 7.65845C60.0431 3.85279 55.5966 5.65449 51.325 5.11775C51.325 7.84767 51.325 10.1711 51.325 12.4944C51.325 14.7814 51.325 17.0683 51.325 19.2951C62.0052 20.5383 66.8811 18.5334 63.4921 7.65845Z" fill="#FAFAFA"/>
        <path d="M98.393 1.72698C99.4216 -0.386555 101.188 -0.228862 102.538 0.461971C103.273 0.837715 103.722 2.4228 103.73 3.46655C103.812 14.8487 103.763 26.2319 103.799 37.6145C103.805 39.5488 103.779 41.1368 101.133 41.149C98.3677 41.1618 98.2411 39.4857 98.2585 37.443C98.3005 32.6135 98.2719 27.7834 98.2719 22.8122C93.5361 22.8122 89.0887 22.8122 84.1847 22.8122C84.1847 24.166 84.1847 25.5167 84.1847 26.8674C84.1842 30.6928 84.1013 34.5206 84.2167 38.3425C84.2806 40.4422 83.4133 41.1556 81.4126 41.1349C79.4533 41.1145 78.8662 40.2385 78.8752 38.37C78.9295 26.5209 78.934 14.6713 78.8712 2.82232C78.8612 0.886065 79.6175 0.116716 81.472 0.101466C83.4558 0.0851506 84.2671 0.906517 84.22 2.97115C84.1086 7.8918 84.1842 12.8167 84.1842 17.8824C88.9464 17.8824 93.4705 17.8824 98.3274 17.8824C98.3274 12.5281 98.3274 7.24326 98.393 1.72698Z" fill="#FBFBFB"/>
        <path d="M35.1906 35.2645C28.5882 41.6456 19.6787 43.3126 11.8751 39.7399C4.2024 36.2271 -0.509352 28.3243 0.0439499 19.8962C0.580452 11.7239 6.22634 4.70233 14.3617 2.08981C22.9803 -0.677873 32.6026 2.7841 37.5724 10.4406C42.6681 18.2911 41.801 27.8449 35.1906 35.2645ZM32.6839 34.1742C36.4669 30.4607 38.4244 26.0178 38.1624 20.6565C37.8041 13.3266 34.1218 8.10919 27.5605 5.24735C20.7568 2.2798 14.1662 3.33532 8.56722 8.26212C3.11444 13.0603 1.40177 19.2543 3.34474 26.2371C6.81339 38.7027 22.5136 43.2171 32.6839 34.1742Z" fill="#F5F5F6"/>
        <path d="M113.634 30.4254C110.744 24.0295 111.73 17.4434 111.71 10.9801C111.708 10.3462 113.127 9.21687 113.887 9.21698C114.575 9.21704 115.78 10.3951 115.856 11.1446C116.107 13.6353 116.101 16.1772 115.925 18.6807C115.455 25.3609 117.958 31.0054 121.886 36.5169C124.977 32.1747 127.535 27.7831 127.741 22.4318C127.874 18.9892 127.82 15.5364 127.751 12.0901C127.716 10.3701 128.071 9.06662 130.088 9.08829C131.943 9.10817 132.222 10.317 132.28 11.9296C132.591 20.5667 132.258 28.9843 127.079 36.5174C122.955 42.516 120.681 42.6586 116.833 36.533C115.653 34.6536 114.758 32.5953 113.634 30.4254Z" fill="#F9F9F9"/>
        <path d="M16.8652 20.8982C18.0552 20.8982 18.9754 20.8982 20.309 20.8982C20.309 17.1189 20.2135 13.4448 20.3744 9.78191C20.4159 8.83646 21.2623 7.92635 21.7389 7C22.1524 7.90037 22.8877 8.78847 22.9226 9.70329C23.0607 13.3207 22.9103 16.9483 23.0069 20.5684C23.0592 22.5301 22.5123 23.48 20.3392 23.3689C17.3732 23.2172 14.3897 23.4146 11.4222 23.2774C10.5992 23.2393 9.80661 22.5462 9 22.1535C9.7661 21.7353 10.5029 21.04 11.3042 20.9555C13.0505 20.7714 14.8296 20.8984 16.8652 20.8982Z" fill="#F3F3F4"/>
    </g>
    <defs>
        <clipPath id="clip0_2_12">
            <rect width="172" height="42" fill="white"/>
        </clipPath>
    </defs>
</svg>
