<svg width="67" height="136" viewBox="0 0 67 136" fill="none" xmlns="http://www.w3.org/2000/svg">
    <g clip-path="url(#clip0_31_328)">
        <path d="M9.2407 135.345C11.9152 135.443 14.5897 135.406 17.2642 135.381C24.726 135.296 32.1878 135.222 39.6495 135.136C40.8097 135.124 42.3118 134.903 42.3851 134.119C42.4584 133.407 41.2738 132.954 40.2724 132.733C36.6942 131.949 32.9328 131.789 29.2202 131.641C23.7613 131.421 18.2901 131.237 12.8312 131.09C9.42393 130.992 5.91901 130.918 2.74379 131.691C1.00963 132.108 -1.54282 133.922 1.22939 134.829C1.99877 135.075 3.53753 134.977 4.35576 135.05C5.99222 135.173 7.61646 135.283 9.2407 135.345Z" fill="url(#paint0_linear_31_328)"/>
        <path opacity="0.22" d="M9.23821 135.345C11.9127 135.443 14.5872 135.406 17.2617 135.381C24.7235 135.296 32.1853 135.222 39.647 135.136C40.8072 135.124 42.3093 134.903 42.3826 134.119C42.4559 133.407 41.2713 132.954 40.2699 132.733C36.6917 131.949 32.9303 131.789 29.2177 131.641C23.7588 131.421 18.2876 131.237 12.8287 131.09C9.42136 130.992 5.9165 130.918 2.74128 131.691C1.00713 132.108 -1.54532 133.922 1.22689 134.829C1.99626 135.075 3.53502 134.977 4.35325 135.05C5.98971 135.173 7.61397 135.283 9.23821 135.345Z" fill="url(#paint1_linear_31_328)"/>
        <path d="M6.49133 37.2172C5.75859 38.8235 5.07475 40.5156 5.08695 42.2812C5.09917 44.0468 5.96623 45.9228 7.59051 46.6095C7.82253 46.7075 8.06679 46.7811 8.31105 46.7566C8.6041 46.7321 8.86052 46.5727 9.10478 46.401C10.8512 45.1381 11.8404 43.0904 12.8906 41.2021C15.5529 36.4325 19.0702 32.0797 20.7554 26.8932C20.8532 26.5866 20.9508 26.2433 20.8165 25.9368C20.731 25.7406 20.5479 25.5934 20.3769 25.4586C19.6075 24.8823 18.6915 24.4409 17.7267 24.4777C16.7742 24.5144 15.785 25.1275 15.5652 26.0594C15.4797 25.385 15.6506 24.7106 15.8338 24.0608C16.017 23.4109 16.2124 22.7488 16.2002 22.0622C16.1758 21.2161 15.1988 19.4015 14.1607 20.321C13.8188 20.6153 13.7699 21.2652 13.6478 21.6698C13.428 22.3932 13.1594 23.0921 12.8785 23.791C11.7183 26.746 10.265 29.5661 8.8362 32.3863C8.0424 33.9925 7.23629 35.5864 6.49133 37.2172Z" fill="#EBEBEB"/>
        <path d="M13.4873 16.7169C13.3652 17.2687 13.4384 17.845 13.5239 18.3967C13.6461 19.1324 13.7926 19.8926 14.1712 20.5424C14.5376 21.1923 15.1604 21.7441 15.9053 21.8422C16.3205 21.9035 16.7724 21.7931 17.0778 21.4988C17.493 21.0943 17.5418 20.4567 17.5418 19.8803C17.5296 18.9485 17.4319 18.0044 17.2365 17.0847C17.1754 16.8027 17.1143 16.5085 16.9556 16.2633C16.5648 15.6134 15.5878 15.2578 14.8429 15.2946C14.1467 15.3437 13.6461 16.0671 13.4873 16.7169Z" fill="#F5D9C9"/>
        <path d="M18.6771 18.9156C18.3962 18.1309 18.1153 17.3461 17.8344 16.5491C17.6878 16.1323 17.5413 15.7277 17.3337 15.3353C16.9673 14.6487 16.4178 14.0601 15.7583 13.6432C15.4286 13.4348 15.0011 13.2753 14.6836 13.4961C14.5126 13.5452 14.3661 13.631 14.2195 13.729C13.9264 13.913 13.6456 14.1092 13.3525 14.2931C13.2304 14.3666 13.1082 14.4525 13.0105 14.5628C12.8518 14.759 12.8029 15.0165 12.8273 15.2618C12.8518 15.507 12.9494 15.7399 13.0594 15.9606C13.6456 17.1745 14.5737 18.1922 15.2332 19.3693C15.4774 19.8107 15.6972 20.2644 15.9781 20.6935C16.3079 21.184 16.7109 21.6009 17.1261 22.0177C17.1627 22.0545 17.2116 22.1036 17.2604 22.1159C17.3581 22.1404 17.4558 22.0913 17.5413 22.03C17.8833 21.7971 18.2374 21.5763 18.5794 21.3434C18.6893 21.2698 18.8114 21.184 18.8969 21.0736C18.9702 20.9633 19.0068 20.8161 19.019 20.6813C19.0923 20.0927 18.8847 19.4919 18.6771 18.9156Z" fill="#EDEDED"/>
        <path d="M16.1233 20.4956C16.343 20.9493 16.5751 21.4643 17.0513 21.6483C17.601 21.8567 18.1871 21.5011 18.6757 21.1701C18.8833 21.0229 19.0908 20.8758 19.213 20.655C19.3962 20.3117 19.2985 19.8949 19.1886 19.527C18.9198 18.6074 18.5657 17.7123 18.1871 16.8418C17.8696 16.1061 17.5399 15.3704 17.1857 14.647C17.0758 14.4263 16.9659 14.2056 16.8071 14.034C16.4408 13.6415 15.8546 13.5312 15.3295 13.617C14.8043 13.7029 14.328 13.9726 13.864 14.2423C13.5953 14.4017 13.3144 14.5734 13.1678 14.8554C12.777 15.6157 13.9495 16.805 14.3158 17.369C14.9753 18.3622 15.6103 19.3921 16.1233 20.4956Z" fill="#333333"/>
        <path d="M18.6561 18.93C18.302 17.9 17.8623 16.9068 17.4349 15.9136C17.1784 15.3374 16.9098 14.7243 16.4213 14.3196C16.2747 14.197 16.1037 14.0867 15.9083 14.0867C15.7741 14.0867 15.6519 14.1234 15.5298 14.1725C14.8825 14.4177 14.2597 14.7243 13.6614 15.0676L13.6247 15.0921C14.4185 16.3182 15.1512 17.5812 15.7985 18.8932C16.0916 19.4817 16.3846 20.0947 16.8731 20.5361C16.9342 20.5975 17.0075 20.6465 17.093 20.671C17.1907 20.6955 17.3006 20.6833 17.4105 20.6588C17.6058 20.622 17.8013 20.5729 17.9967 20.5116C18.2532 20.4381 18.5096 20.34 18.6684 20.1193C18.7905 19.9476 18.8271 19.7269 18.8149 19.5185C18.7905 19.3346 18.7294 19.1383 18.6561 18.93Z" fill="#DFDFDF"/>
        <path d="M18.0285 20.7789C17.8453 21.0732 18.3217 21.0977 18.4559 20.877C18.6392 20.5704 18.1507 20.5704 18.0285 20.7789Z" fill="#DFDFDF"/>
        <path d="M10.0546 58.7269C10.0546 58.7269 8.16163 120.279 8.125 129.843L12.6802 129.978C12.6802 129.978 17.6507 81.5576 21.4244 78.6884C21.4244 78.6884 22.9874 78.4676 23.5858 78.6884C24.1842 78.9092 25.7597 126.631 24.7583 130.174H28.8005C28.8005 130.174 37.8744 72.7416 37.337 59.1071C37.337 59.1071 37.6912 52.2652 25.6742 52.8783C13.6695 53.5036 11.2514 51.9341 10.0546 58.7269Z" fill="#4D4D4D"/>
        <path d="M15.9678 5.76875C15.4794 7.08071 15.4305 8.52756 15.626 9.91308C15.8214 11.2986 16.2488 12.6474 16.6885 13.9716C17.3479 12.0098 18.0073 10.0234 19.1064 8.27004C19.6193 7.44855 20.2544 6.59026 20.23 5.62161C20.2178 4.97176 19.8758 4.33417 19.3385 3.96632C17.7264 2.83828 16.5175 4.33417 15.9678 5.76875Z" fill="#EDE1BB"/>
        <path d="M16.8596 16.0446C16.9207 16.9151 16.9695 17.8102 17.2625 18.6194C17.9098 20.4219 19.5219 21.4273 21.0485 22.2365C22.2208 22.8496 23.5642 23.4381 24.7365 22.8619C25.7502 22.3591 26.3364 21.1575 27.1179 20.2502C27.7041 19.5635 28.4247 19.0241 28.9865 18.3006C30.2444 16.6822 30.5497 14.3403 30.5497 12.1455C30.5618 9.37435 30.0734 6.34581 28.2537 4.56791C27.3012 3.63605 26.08 3.15785 24.8587 2.87584C23.7108 2.60609 22.5139 2.508 21.3904 2.86358C19.9982 3.30499 18.8136 4.44529 17.9832 5.83083C15.9925 9.16589 16.6153 12.2558 16.8596 16.0446Z" fill="#F5D9C9"/>
        <path d="M34.1159 5.75661C33.8839 4.3956 33.5663 2.78936 32.3084 2.20081C31.5268 1.83297 30.6109 2.00463 29.7561 2.12724C28.9257 2.24986 28.0829 2.31117 27.2525 2.20081C25.6405 1.96785 24.2116 1.04825 22.6973 0.4597C21.1707 -0.116585 19.2778 -0.300506 18.0566 0.803014C17.2994 1.48965 16.9575 2.62996 17.2261 3.62314C17.3971 4.26073 17.7024 4.70213 18.0932 5.02093C17.6413 6.9337 20.9997 8.25791 22.6728 8.40509C24.1749 8.52771 25.6893 8.29468 27.1914 8.06173C27.4601 10.2442 27.7166 12.4268 27.9852 14.6216C28.1806 13.6897 28.6203 12.8192 29.2431 12.108C29.6583 12.3533 29.7926 12.905 29.7316 13.3832C29.6705 13.8614 29.4507 14.3028 29.2797 14.7442C28.6692 16.3995 28.8157 18.3245 27.9242 19.8572C28.1196 19.6733 28.3027 19.4771 28.4737 19.2686C28.4615 19.379 28.4615 19.5016 28.4493 19.6119C30.6353 18.1038 32.4183 16.0316 33.6029 13.6529C34.067 12.721 34.4456 11.7279 34.5799 10.6857C34.7875 9.0304 34.3968 7.38736 34.1159 5.75661Z" fill="#EDE1BB"/>
        <path d="M8.66427 63.0164C8.63987 63.6662 8.6154 64.3406 8.87189 64.9414C9.50694 66.425 12.9142 66.4864 14.6728 66.7929C20.6812 67.8596 28.4117 68.8406 34.5301 68.534C35.2018 68.4972 35.91 68.4482 36.4963 68.1539C37.5221 67.6512 37.9496 66.5599 38.2305 65.5545C39.5738 60.8093 38.0594 55.2672 38.1083 50.3749C38.1449 46.3532 38.1816 42.3437 37.8763 38.3342C37.5831 34.5332 36.9604 30.6708 35.0919 27.2254C34.5057 26.1587 33.773 25.0919 32.6372 24.4543C31.6113 23.8781 30.3535 23.7064 29.1323 23.5961C26.7264 23.3876 24.3084 23.3999 21.9025 23.6206C20.2294 23.78 19.0448 23.5716 17.4572 23.3018C16.6023 23.1547 16.7978 22.9585 16.2482 23.5838C15.8086 24.0988 15.6376 25.1165 15.4178 25.7295C14.3675 28.5865 13.5371 31.5169 12.8775 34.4719C11.5464 40.4187 10.9114 46.4513 10.5206 52.4961C10.3252 55.8435 8.79863 59.6813 8.66427 63.0164Z" fill="#F2F2F2"/>
        <path d="M21.3409 25.4011C21.8904 25.4378 22.1103 26.1981 21.8904 26.7007C21.6706 27.2034 21.2065 27.5468 20.8401 27.9636C20.0097 28.92 19.7654 30.2321 19.5578 31.4827C18.9228 35.3205 18.2877 39.1583 17.6405 42.9961C17.4207 44.3571 17.1886 45.7304 17.2741 47.1037C17.3596 48.477 17.7627 49.8257 17.7382 51.2112C17.726 51.5791 17.6894 51.9592 17.4696 52.2657C17.3108 52.4864 17.0665 52.6458 16.8345 52.7929C16.3827 53.0749 15.9308 53.3692 15.479 53.6513C15.2713 53.7739 15.0393 53.9087 14.8073 53.8474C14.563 53.7739 14.4531 53.5164 14.3065 53.3079C14.0745 52.9646 13.7204 52.7317 13.4639 52.4129C12.7067 51.481 12.9266 50.1199 13.1831 48.9429C13.7692 46.2822 14.3554 43.6092 14.9416 40.9485C15.8087 37.0616 16.7002 33.138 18.4588 29.5699C18.7275 29.0304 19.0327 28.4787 19.1305 27.8779C19.2159 27.326 18.8007 26.7007 18.8984 26.2471C19.0571 25.585 20.7547 25.3643 21.3409 25.4011Z" fill="#363636"/>
        <path d="M58.9333 51.7835C60.7774 51.6118 62.7436 51.4647 64.4045 52.3107C66.0654 53.1445 67.1767 55.3515 66.212 56.9455C65.5158 58.0858 64.087 58.4905 62.7925 58.7847C49.7985 61.7029 36.4503 62.5244 23.1633 63.3337C22.1741 63.3949 21.1604 63.444 20.2323 63.113C18.5348 62.4999 16.764 59.2997 18.5104 57.8528C19.4019 57.1049 21.3193 57.1294 22.4061 56.921C24.0548 56.6145 25.7035 56.3079 27.3399 56.0259C34.0201 54.8611 40.7247 53.8556 47.4415 53.0341C51.2762 52.5559 55.0986 52.139 58.9333 51.7835Z" fill="#EBEBEB"/>
        <path d="M22.9077 59.1653C22.3338 57.9636 20.6485 57.0318 19.5494 58.1721C18.3648 59.3859 19.3052 61.078 20.2211 62.108C20.3799 62.292 20.7096 62.0467 20.563 61.8505C20.1111 61.2374 19.6227 60.5508 19.5982 59.7661C19.5616 58.7729 20.3188 58.0004 21.3201 58.3928C22.1262 58.7116 22.4804 59.5576 22.6513 60.3546C22.6879 60.5263 22.7979 60.8574 22.749 61.0045L22.7612 61.1761C22.5781 61.1393 22.3949 61.1025 22.2117 61.0658C22.0285 60.9431 21.882 60.6121 21.7965 60.416C21.7842 60.3792 21.5766 59.7906 21.5766 59.7906C22.0407 59.8887 22.2483 59.1653 21.772 59.0671C20.0867 58.7238 21.308 61.4213 22.1385 61.8138C22.5781 62.0221 23.2009 61.9731 23.3597 61.4336C23.5429 60.796 23.1765 59.717 22.9077 59.1653Z" fill="#E0E0E0"/>
        <path d="M46.8291 46.9676C49.4792 44.9935 52.3613 42.8968 55.6586 42.86C57.2218 42.8478 59.0415 43.5835 59.3346 45.1161C59.6277 46.6856 58.2111 47.9976 56.941 48.9417C49.4182 54.5084 41.4801 59.511 34.3115 65.5436C32.7605 66.8556 31.2217 68.2166 29.3898 69.1116C27.5702 70.0067 25.3842 70.3745 23.5035 69.6021C22.0747 69.0136 19.9985 66.8188 20.8411 65.1022C21.232 64.3052 22.5142 63.7902 23.2104 63.3488C24.3461 62.6131 25.4941 61.8775 26.6299 61.1294C31.063 58.2113 35.4472 55.2195 39.7582 52.1296C42.1274 50.4376 44.4843 48.721 46.8291 46.9676Z" fill="#F2F2F2"/>
        <path d="M35.5315 64.8929C44.2756 61.3126 53.447 58.6641 61.6782 54.0048C62.533 53.5266 63.4124 52.9749 63.852 52.092C64.1207 51.5526 64.1939 50.9272 64.2183 50.3264C64.3038 48.5853 63.9253 46.5622 62.3987 45.7039C60.7622 44.7843 58.7473 45.6793 57.0864 46.5377C51.8717 49.2474 46.5105 51.6752 41.0393 53.8086C37.8275 55.0593 34.5668 56.2242 31.5014 57.8059C28.6315 59.2895 25.9203 61.1532 22.8672 62.2199C21.414 62.7349 19.7653 63.1395 18.8738 64.4024C18.2632 65.2731 18.1411 66.3766 18.0678 67.4433C18.0068 68.4487 17.9823 69.5277 18.483 70.3983C20.0706 73.1446 24.3572 69.9078 26.1646 69.0495C29.2788 67.5904 32.3807 66.1804 35.5315 64.8929Z" fill="#E8E8E8"/>
        <path d="M22.4172 67.519C22.3438 66.6117 22.063 64.3434 20.683 64.5518C19.3641 64.7602 18.9976 67.2493 18.961 68.267C18.9488 68.5245 19.3396 68.5122 19.3519 68.267C19.4251 67.3719 19.6693 66.5013 20.1701 65.7534C21.2325 64.1472 21.7089 66.9182 21.7455 67.519C21.7699 67.9114 21.7698 68.316 21.6966 68.6961C21.6722 68.9659 21.5867 69.2111 21.4401 69.4441C20.7196 69.7874 20.3899 69.7261 20.4387 69.2601C20.2189 68.6348 20.4998 67.4087 20.5731 66.7711C20.6341 66.2929 19.8769 66.2929 19.8159 66.7711C19.7182 67.6539 19.1198 70.5108 20.6219 70.6456C22.2217 70.7928 22.5026 68.6225 22.4172 67.519Z" fill="#D1D1D1"/>
        <path d="M62.5799 54.2733C62.5066 53.9668 62.4211 53.648 62.1891 53.4272C62.0181 53.2678 61.7739 53.182 61.5418 53.1329C59.9298 52.7529 58.2567 53.3292 56.7058 53.9054C44.0049 58.6261 31.5238 63.9843 19.3358 69.9311C18.8229 70.1763 18.2979 70.446 17.9315 70.8752C17.4185 71.476 17.2964 72.3833 17.6383 73.1067C17.9803 73.818 18.7497 74.3086 19.5435 74.2962C19.9831 74.2838 20.4106 74.1368 20.8258 74.0015C24.7948 72.6163 28.7517 71.2307 32.7207 69.8452C39.9382 67.9569 47.1191 65.9093 54.2511 63.7145C56.0952 63.1505 57.9392 62.562 59.7467 61.9244C60.858 61.532 62.0548 61.0293 62.6165 59.987C62.9463 59.374 63.0073 58.6506 63.0073 57.9639C62.9952 56.7133 62.8608 55.4749 62.5799 54.2733Z" fill="#F2F2F2"/>
        <path d="M19.9088 72.2248C19.7134 71.7466 19.2249 71.1826 18.6387 71.2929C18.028 71.4155 18.2723 72.3719 18.3944 72.7642C18.4432 72.9236 18.6875 72.8624 18.6509 72.6907C18.6142 72.5313 18.5898 72.3719 18.5776 72.2002C18.5654 72.0408 18.6387 71.7466 18.8463 71.6975C19.0783 71.6485 19.3715 72.1144 19.457 72.2738C19.5669 72.4945 19.6279 72.7398 19.6768 72.985C19.7012 73.0953 19.7866 73.4385 19.5302 73.3771C19.4081 73.353 19.2737 72.9482 19.2493 72.8624C19.1638 72.5926 18.7242 72.7152 18.8218 72.985C18.9562 73.3654 19.3225 74.1127 19.8477 73.8677C20.4339 73.5979 20.0798 72.6539 19.9088 72.2248Z" fill="#E0E0E0"/>
        <path d="M33.3216 28.514C34.1765 28.1952 35.1902 28.0481 35.9351 28.5631C36.3747 28.8696 36.6556 29.3478 36.9121 29.826C37.8646 31.6038 38.7317 33.4308 39.5866 35.2701C40.6247 37.4648 41.6504 39.6596 42.6885 41.8544C43.3724 43.3012 44.0563 44.7481 44.4716 46.293C45.6439 50.609 44.6669 55.1825 43.6899 59.5353C43.116 62.0979 42.542 64.6728 41.6138 67.1373C41.5283 67.3458 41.4306 67.5788 41.2352 67.6891C41.0642 67.7749 40.8688 67.7627 40.6856 67.7504C40.1605 67.7014 39.6354 67.6523 39.1102 67.6033C38.8782 67.5788 38.6218 67.542 38.4997 67.3458C38.4019 67.1741 38.4386 66.9657 38.4874 66.7818C39.7087 61.5952 40.4781 56.3106 40.7956 50.9891C40.8322 50.4618 40.8567 49.9224 40.7468 49.4074C40.4903 48.2058 39.5621 47.2862 38.7562 46.3543C35.874 43.0315 34.1887 38.789 31.2211 35.5398C30.244 34.4731 28.8153 33.0507 29.5236 31.5181C30.1586 30.1325 31.9538 29.0167 33.3216 28.514Z" fill="#EBEBEB"/>
        <path d="M37.8422 69.5277C37.659 69.822 37.4635 70.1898 37.6345 70.4963C37.6956 70.6067 37.7933 70.6802 37.8422 70.7906C37.9399 70.9868 37.8543 71.232 37.8788 71.4527C37.9277 71.796 38.2452 72.0168 38.5383 72.1884C38.7826 72.3356 39.0634 72.4704 39.332 72.4091C39.4419 72.3846 39.5519 72.3233 39.6496 72.262C40.2113 71.9186 40.712 71.4282 40.9319 70.8028C41.0296 70.5208 41.0663 70.2143 41.1029 69.92C41.1884 69.2089 41.2739 68.51 41.3594 67.7989C41.396 67.5413 41.4082 67.2593 41.2372 67.0631C41.1273 66.9405 40.9686 66.8915 40.822 66.8547C40.59 66.7934 40.3457 66.7321 40.1015 66.6953C39.7717 66.6463 39.3809 66.6217 39.1123 66.867C38.9046 67.0509 38.9291 67.2839 38.8436 67.5291C38.6238 68.228 38.2208 68.9146 37.8422 69.5277Z" fill="#F5D9C9"/>
        <path d="M22.1814 130.33C21.9127 130.515 21.6807 130.747 21.3388 130.858C20.7404 131.066 19.9832 130.845 19.3603 131.017C18.6154 131.214 18.3345 131.839 18.1757 132.39C18.0047 132.967 17.9315 133.665 18.5665 134.058C18.9695 134.303 19.5313 134.352 20.0687 134.364C23.1218 134.5 26.2115 134.377 29.2279 133.997C29.5455 133.96 29.8874 133.911 30.1194 133.739C30.3637 133.567 30.4248 133.298 30.4492 133.053C30.5835 131.863 30.6323 129.374 28.3974 129.239C26.7854 129.142 23.3416 129.558 22.1814 130.33Z" fill="#3D322B"/>
        <path d="M7.91852 128.994C7.69873 128.97 7.4544 128.957 7.25903 129.019C6.77054 129.178 6.77054 129.68 6.50187 130.024C6.15993 130.465 5.39057 130.613 4.69447 130.649C3.99836 130.686 3.26565 130.673 2.66724 130.943C1.8368 131.323 1.60476 132.12 1.51928 132.844C1.49485 133.004 1.48263 133.175 1.59255 133.322C1.76352 133.567 2.19093 133.641 2.5573 133.678C5.47606 133.997 8.46807 134.033 11.399 133.788C12.0707 133.727 12.8279 133.616 13.1454 133.187C13.6828 132.476 13.9514 130.588 13.1088 129.914C12.144 129.117 9.26195 128.994 7.91852 128.994Z" fill="#3D322B"/>
    </g>
    <defs>
        <linearGradient id="paint0_linear_31_328" x1="0.0700109" y1="132.537" x2="42.3611" y2="134.611" gradientUnits="userSpaceOnUse">
            <stop stop-color="white"/>
            <stop offset="1"/>
        </linearGradient>
        <linearGradient id="paint1_linear_31_328" x1="0.0675068" y1="132.537" x2="42.3587" y2="134.611" gradientUnits="userSpaceOnUse">
            <stop/>
            <stop offset="1"/>
        </linearGradient>
        <clipPath id="clip0_31_328">
            <rect width="67" height="136" fill="white"/>
        </clipPath>
    </defs>
</svg>
