<svg width="23" height="25" viewBox="0 0 23 25" fill="none" xmlns="http://www.w3.org/2000/svg">
    <path d="M3.33335 11.6667C3.33335 9.89856 4.03573 8.20286 5.28598 6.95262C6.53622 5.70238 8.23191 5 10 5C11.7681 5 13.4638 5.70238 14.7141 6.95262C15.9643 8.20286 16.6667 9.89856 16.6667 11.6667V15.5808L18.3334 18.0808V21.6667H13.6575C13.468 22.4948 13.003 23.234 12.3386 23.7635C11.6743 24.2929 10.8499 24.5812 10.0004 24.5812C9.15093 24.5812 8.32656 24.2929 7.66223 23.7635C6.99789 23.234 6.5329 22.4948 6.34335 21.6667H1.66669V18.0808L3.33335 15.5808V11.6667ZM8.09002 21.6667C8.252 22.0385 8.51902 22.355 8.85831 22.5773C9.1976 22.7996 9.5944 22.918 10 22.918C10.4056 22.918 10.8024 22.7996 11.1417 22.5773C11.481 22.355 11.748 22.0385 11.91 21.6667H8.09002ZM10 6.66667C8.67394 6.66667 7.40217 7.19345 6.46449 8.13113C5.5268 9.06881 5.00002 10.3406 5.00002 11.6667V16.0858L3.33335 18.5858V20H16.6667V18.5858L15 16.0858V11.6667C15 10.3406 14.4732 9.06881 13.5356 8.13113C12.5979 7.19345 11.3261 6.66667 10 6.66667Z" fill="#DFDFDF"/>
    <circle cx="18" cy="5" r="5" fill="#A23737"/>
</svg>
