<svg width="198" height="41" viewBox="0 0 198 41" fill="none" xmlns="http://www.w3.org/2000/svg">
    <path d="M35.1906 34.1206C28.5882 40.5016 19.6787 42.1686 11.8751 38.5959C4.2024 35.0831 -0.509352 27.1804 0.0439499 18.7522C0.580452 10.5799 6.22634 3.55835 14.3617 0.945827C22.9803 -1.82185 32.6026 1.64012 37.5724 9.29665C42.6681 17.1471 41.801 26.701 35.1906 34.1206ZM32.6839 33.0302C36.4669 29.3167 38.4244 24.8738 38.1624 19.5126C37.8041 12.1826 34.1218 6.96521 27.5605 4.10337C20.7568 1.13582 14.1662 2.19133 8.56722 7.11814C3.11444 11.9163 1.40177 18.1103 3.34474 25.0931C6.81339 37.5587 22.5136 42.0731 32.6839 33.0302Z" fill="#212121"/>
    <path d="M15.8652 20.8982C17.0552 20.8982 17.9754 20.8982 19.309 20.8982C19.309 17.1189 19.2135 13.4448 19.3744 9.78191C19.4159 8.83646 20.2623 7.92635 20.7389 7C21.1524 7.90037 21.8877 8.78847 21.9226 9.70329C22.0607 13.3207 21.9103 16.9483 22.0069 20.5684C22.0592 22.5301 21.5123 23.48 19.3392 23.3689C16.3732 23.2172 13.3897 23.4146 10.4222 23.2774C9.59921 23.2393 8.80661 22.5462 8 22.1535C8.7661 21.7353 9.5029 21.04 10.3042 20.9555C12.0505 20.7714 13.8296 20.8984 15.8652 20.8982Z" fill="#212121"/>
    <path d="M67.1136 28V10.5455H73.2159C74.4318 10.5455 75.4347 10.7557 76.2244 11.1761C77.0142 11.5909 77.6023 12.1506 77.9886 12.8551C78.375 13.554 78.5682 14.3295 78.5682 15.1818C78.5682 15.9318 78.4347 16.5511 78.1676 17.0398C77.9063 17.5284 77.5597 17.9148 77.1278 18.1989C76.7017 18.483 76.2386 18.6932 75.7386 18.8295V19C76.2727 19.0341 76.8097 19.2216 77.3494 19.5625C77.8892 19.9034 78.3409 20.392 78.7045 21.0284C79.0682 21.6648 79.25 22.4432 79.25 23.3636C79.25 24.2386 79.0511 25.0256 78.6534 25.7244C78.2557 26.4233 77.6278 26.9773 76.7699 27.3864C75.9119 27.7955 74.7955 28 73.4205 28H67.1136ZM69.2273 26.125H73.4205C74.8011 26.125 75.7813 25.858 76.3608 25.3239C76.946 24.7841 77.2386 24.1307 77.2386 23.3636C77.2386 22.7727 77.0881 22.2273 76.7869 21.7273C76.4858 21.2216 76.0568 20.8182 75.5 20.517C74.9432 20.2102 74.2841 20.0568 73.5227 20.0568H69.2273V26.125ZM69.2273 18.2159H73.1477C73.7841 18.2159 74.358 18.0909 74.8693 17.8409C75.3864 17.5909 75.7955 17.2386 76.0966 16.7841C76.4034 16.3295 76.5568 15.7955 76.5568 15.1818C76.5568 14.4148 76.2898 13.7642 75.7557 13.2301C75.2216 12.6903 74.375 12.4205 73.2159 12.4205H69.2273V18.2159ZM86.3026 28.3068C85.473 28.3068 84.7202 28.1506 84.044 27.8381C83.3679 27.5199 82.831 27.0625 82.4332 26.4659C82.0355 25.8636 81.8366 25.1364 81.8366 24.2841C81.8366 23.5341 81.9844 22.9261 82.2798 22.4602C82.5753 21.9886 82.9702 21.6193 83.4645 21.3523C83.9588 21.0852 84.5043 20.8864 85.1009 20.7557C85.7031 20.6193 86.3082 20.5114 86.9162 20.4318C87.7116 20.3295 88.3565 20.2528 88.8509 20.2017C89.3509 20.1449 89.7145 20.0511 89.9418 19.9205C90.1747 19.7898 90.2912 19.5625 90.2912 19.2386V19.1705C90.2912 18.3295 90.0611 17.6761 89.6009 17.2102C89.1463 16.7443 88.456 16.5114 87.5298 16.5114C86.5696 16.5114 85.8168 16.7216 85.2713 17.142C84.7259 17.5625 84.3423 18.0114 84.1207 18.4886L82.2116 17.8068C82.5526 17.0114 83.0071 16.392 83.5753 15.9489C84.1491 15.5 84.7741 15.1875 85.4503 15.0114C86.1321 14.8295 86.8026 14.7386 87.4616 14.7386C87.8821 14.7386 88.3651 14.7898 88.9105 14.892C89.4616 14.9886 89.9929 15.1903 90.5043 15.4972C91.0213 15.804 91.4503 16.267 91.7912 16.8864C92.1321 17.5057 92.3026 18.3352 92.3026 19.375V28H90.2912V26.2273H90.1889C90.0526 26.5114 89.8253 26.8153 89.5071 27.1392C89.1889 27.4631 88.7656 27.7386 88.2372 27.9659C87.7088 28.1932 87.0639 28.3068 86.3026 28.3068ZM86.6094 26.5C87.4048 26.5 88.0753 26.3438 88.6207 26.0312C89.1719 25.7188 89.5866 25.3153 89.8651 24.821C90.1491 24.3267 90.2912 23.8068 90.2912 23.2614V21.4205C90.206 21.5227 90.0185 21.6165 89.7287 21.7017C89.4446 21.7812 89.1151 21.8523 88.7401 21.9148C88.3707 21.9716 88.0099 22.0227 87.6577 22.0682C87.3111 22.108 87.0298 22.142 86.8139 22.1705C86.2912 22.2386 85.8026 22.3494 85.348 22.5028C84.8991 22.6506 84.5355 22.875 84.2571 23.1761C83.9844 23.4716 83.848 23.875 83.848 24.3864C83.848 25.0852 84.1065 25.6136 84.6236 25.9716C85.1463 26.3239 85.8082 26.5 86.6094 26.5ZM101.667 14.9091V16.6136H94.8828V14.9091H101.667ZM96.8601 11.7727H98.8714V24.25C98.8714 24.8182 98.9538 25.2443 99.1186 25.5284C99.2891 25.8068 99.505 25.9943 99.7663 26.0909C100.033 26.1818 100.315 26.2273 100.61 26.2273C100.832 26.2273 101.013 26.2159 101.156 26.1932C101.298 26.1648 101.411 26.142 101.496 26.125L101.906 27.9318C101.769 27.983 101.579 28.0341 101.335 28.0852C101.09 28.142 100.781 28.1705 100.406 28.1705C99.8374 28.1705 99.2805 28.0483 98.7351 27.804C98.1953 27.5597 97.7464 27.1875 97.3885 26.6875C97.0362 26.1875 96.8601 25.5568 96.8601 24.7955V11.7727ZM110.04 28.2727C108.779 28.2727 107.691 27.9943 106.776 27.4375C105.867 26.875 105.165 26.0909 104.671 25.0852C104.183 24.0739 103.938 22.8977 103.938 21.5568C103.938 20.2159 104.183 19.0341 104.671 18.0114C105.165 16.983 105.853 16.1818 106.734 15.608C107.62 15.0284 108.654 14.7386 109.836 14.7386C110.518 14.7386 111.191 14.8523 111.856 15.0795C112.521 15.3068 113.126 15.6761 113.671 16.1875C114.217 16.6932 114.651 17.3636 114.975 18.1989C115.299 19.0341 115.461 20.0625 115.461 21.2841V22.1364H105.37V20.3977H113.415C113.415 19.6591 113.268 19 112.972 18.4205C112.683 17.8409 112.268 17.3835 111.728 17.0483C111.194 16.7131 110.563 16.5455 109.836 16.5455C109.035 16.5455 108.342 16.7443 107.756 17.142C107.177 17.5341 106.731 18.0455 106.418 18.6761C106.106 19.3068 105.95 19.983 105.95 20.7045V21.8636C105.95 22.8523 106.12 23.6903 106.461 24.3778C106.808 25.0597 107.288 25.5795 107.901 25.9375C108.515 26.2898 109.228 26.4659 110.04 26.4659C110.569 26.4659 111.046 26.392 111.472 26.2443C111.904 26.0909 112.276 25.8636 112.589 25.5625C112.901 25.2557 113.143 24.875 113.313 24.4205L115.256 24.9659C115.052 25.625 114.708 26.2045 114.225 26.7045C113.742 27.1989 113.146 27.5852 112.435 27.8636C111.725 28.1364 110.927 28.2727 110.04 28.2727ZM118.521 28V14.9091H120.464V16.8864H120.6C120.839 16.2386 121.271 15.7131 121.896 15.3097C122.521 14.9062 123.225 14.7045 124.009 14.7045C124.157 14.7045 124.342 14.7074 124.563 14.7131C124.785 14.7187 124.952 14.7273 125.066 14.7386V16.7841C124.998 16.767 124.842 16.7415 124.597 16.7074C124.359 16.6676 124.106 16.6477 123.839 16.6477C123.202 16.6477 122.634 16.7812 122.134 17.0483C121.64 17.3097 121.248 17.6733 120.958 18.1392C120.674 18.5994 120.532 19.125 120.532 19.7159V28H118.521ZM134.473 28V10.5455H140.371C141.74 10.5455 142.859 10.7926 143.729 11.2869C144.604 11.7756 145.251 12.4375 145.672 13.2727C146.092 14.108 146.303 15.0398 146.303 16.0682C146.303 17.0966 146.092 18.0312 145.672 18.8722C145.257 19.7131 144.615 20.3835 143.746 20.8835C142.876 21.3778 141.763 21.625 140.405 21.625H136.178V19.75H140.337C141.274 19.75 142.027 19.5881 142.595 19.2642C143.163 18.9403 143.575 18.5028 143.831 17.9517C144.092 17.3949 144.223 16.767 144.223 16.0682C144.223 15.3693 144.092 14.7443 143.831 14.1932C143.575 13.642 143.161 13.2102 142.587 12.8977C142.013 12.5795 141.251 12.4205 140.303 12.4205H136.587V28H134.473ZM154.612 28.2727C153.43 28.2727 152.393 27.9915 151.501 27.429C150.615 26.8665 149.922 26.0795 149.422 25.0682C148.928 24.0568 148.68 22.875 148.68 21.5227C148.68 20.1591 148.928 18.9687 149.422 17.9517C149.922 16.9347 150.615 16.1449 151.501 15.5824C152.393 15.0199 153.43 14.7386 154.612 14.7386C155.794 14.7386 156.828 15.0199 157.714 15.5824C158.607 16.1449 159.3 16.9347 159.794 17.9517C160.294 18.9687 160.544 20.1591 160.544 21.5227C160.544 22.875 160.294 24.0568 159.794 25.0682C159.3 26.0795 158.607 26.8665 157.714 27.429C156.828 27.9915 155.794 28.2727 154.612 28.2727ZM154.612 26.4659C155.51 26.4659 156.249 26.2358 156.828 25.7756C157.408 25.3153 157.837 24.7102 158.115 23.9602C158.393 23.2102 158.533 22.3977 158.533 21.5227C158.533 20.6477 158.393 19.8324 158.115 19.0767C157.837 18.321 157.408 17.7102 156.828 17.2443C156.249 16.7784 155.51 16.5455 154.612 16.5455C153.714 16.5455 152.976 16.7784 152.396 17.2443C151.817 17.7102 151.388 18.321 151.109 19.0767C150.831 19.8324 150.692 20.6477 150.692 21.5227C150.692 22.3977 150.831 23.2102 151.109 23.9602C151.388 24.7102 151.817 25.3153 152.396 25.7756C152.976 26.2358 153.714 26.4659 154.612 26.4659ZM165.626 20.125V28H163.614V14.9091H165.558V16.9545H165.728C166.035 16.2898 166.501 15.7557 167.126 15.3523C167.751 14.9432 168.558 14.7386 169.546 14.7386C170.433 14.7386 171.208 14.9205 171.873 15.2841C172.538 15.642 173.055 16.1875 173.424 16.9205C173.793 17.6477 173.978 18.5682 173.978 19.6818V28H171.967V19.8182C171.967 18.7898 171.7 17.9886 171.165 17.4148C170.631 16.8352 169.898 16.5455 168.967 16.5455C168.325 16.5455 167.751 16.6847 167.245 16.9631C166.745 17.2415 166.35 17.6477 166.06 18.1818C165.771 18.7159 165.626 19.3636 165.626 20.125ZM183.347 14.9091V16.6136H176.562V14.9091H183.347ZM178.54 11.7727H180.551V24.25C180.551 24.8182 180.634 25.2443 180.798 25.5284C180.969 25.8068 181.185 25.9943 181.446 26.0909C181.713 26.1818 181.994 26.2273 182.29 26.2273C182.511 26.2273 182.693 26.2159 182.835 26.1932C182.977 26.1648 183.091 26.142 183.176 26.125L183.585 27.9318C183.449 27.983 183.259 28.0341 183.014 28.0852C182.77 28.142 182.46 28.1705 182.085 28.1705C181.517 28.1705 180.96 28.0483 180.415 27.804C179.875 27.5597 179.426 27.1875 179.068 26.6875C178.716 26.1875 178.54 25.5568 178.54 24.7955V11.7727ZM191.55 28.2727C190.368 28.2727 189.331 27.9915 188.439 27.429C187.553 26.8665 186.859 26.0795 186.359 25.0682C185.865 24.0568 185.618 22.875 185.618 21.5227C185.618 20.1591 185.865 18.9687 186.359 17.9517C186.859 16.9347 187.553 16.1449 188.439 15.5824C189.331 15.0199 190.368 14.7386 191.55 14.7386C192.732 14.7386 193.766 15.0199 194.652 15.5824C195.544 16.1449 196.237 16.9347 196.732 17.9517C197.232 18.9687 197.482 20.1591 197.482 21.5227C197.482 22.875 197.232 24.0568 196.732 25.0682C196.237 26.0795 195.544 26.8665 194.652 27.429C193.766 27.9915 192.732 28.2727 191.55 28.2727ZM191.55 26.4659C192.447 26.4659 193.186 26.2358 193.766 25.7756C194.345 25.3153 194.774 24.7102 195.053 23.9602C195.331 23.2102 195.47 22.3977 195.47 21.5227C195.47 20.6477 195.331 19.8324 195.053 19.0767C194.774 18.321 194.345 17.7102 193.766 17.2443C193.186 16.7784 192.447 16.5455 191.55 16.5455C190.652 16.5455 189.913 16.7784 189.334 17.2443C188.754 17.7102 188.325 18.321 188.047 19.0767C187.768 19.8324 187.629 20.6477 187.629 21.5227C187.629 22.3977 187.768 23.2102 188.047 23.9602C188.325 24.7102 188.754 25.3153 189.334 25.7756C189.913 26.2358 190.652 26.4659 191.55 26.4659Z" fill="#212121"/>
</svg>
