<svg width="71" height="127" viewBox="0 0 71 127" fill="none" xmlns="http://www.w3.org/2000/svg">
    <path d="M0.66571 123.285H24.0135V83.6862H0.66571V123.285Z" fill="#B2B2B2"/>
    <path d="M23.9209 123.285H47.2687V83.6862H23.9209V123.285Z" fill="#D1D1D1"/>
    <path d="M26.0183 46.243L28.8303 59.9118L20.0476 61.0598C20.0476 61.0598 19.2862 46.8552 20.0476 46.7787C20.809 46.7098 26.0183 46.243 26.0183 46.243Z" fill="#A8754B"/>
    <path d="M17.8009 32.5088C17.8009 32.5088 26.5761 33.7639 28.1518 47.318C28.1518 47.318 25.3548 50.3717 21.789 49.4303L17.8009 32.5088Z" fill="#FFD686"/>
    <path d="M13.9939 32.0476C13.9939 32.0476 5.44488 31.1904 2.43688 37.3054C-0.578656 43.4205 8.21159 49.788 5.1961 63.8013L24.1487 62.7834V50.4233C24.1487 50.4233 27.6015 45.3108 22.7088 39.831C22.7088 39.831 22.4148 31.5042 13.9939 32.0476Z" fill="#FFD686"/>
    <path d="M42.189 65.7797C42.189 65.7797 48.3331 63.4684 49.9841 69.5222C51.6352 75.5683 58.4804 115.098 58.4804 115.098H52.9921L49.7655 99.3855C49.7655 99.3855 45.2121 94.2348 43.8174 83.2982L24.6687 80.9792L42.189 65.7797Z" fill="#B5845B"/>
    <path d="M29.6295 80.2476C29.6295 80.2476 32.8862 80.1558 38.6685 78.2883C44.4508 76.4135 48.5746 78.3955 46.2978 85.008C44.0211 91.6128 32.5168 122.226 32.5168 122.226L28.1594 120.902L31.9213 101.08C31.9213 101.08 32.8033 91.2455 36.8894 85.4825C36.8894 85.4825 28.2951 85.9187 25.3549 85.4595C22.4299 85.008 29.6295 80.2476 29.6295 80.2476Z" fill="#A8754B"/>
    <path d="M5.19585 63.7992C5.19585 63.7992 -1.75495 72.6694 6.60562 81.3788C6.60562 81.3788 10.9103 86.4682 29.8855 85.6723C29.8855 85.6723 34.8612 68.6208 45.4457 64.0364L23.5378 61.0593L5.19585 63.7992Z" fill="#0C2C40"/>
    <path d="M14.4613 9.39846C14.4613 9.39846 16.723 0.0537289 8.8901 0.00015549C3.09276 -0.0381112 1.36637 6.99529 8.47546 11.7021L14.4613 9.39846Z" fill="#190D08"/>
    <path d="M8.21152 13.3999C8.21152 13.3999 6.79422 9.72634 10.835 7.86657C14.8758 6.00678 16.165 10.4074 16.165 10.4074L8.21152 13.3999Z" fill="#FD6C75"/>
    <path d="M23.5607 21.7614C23.5607 21.7614 29.3958 18.2561 23.0858 11.2151C19.143 6.81437 12.2374 7.05927 8.39258 11.4217C4.54774 15.7841 8.17396 23.4757 8.17396 23.4757L10.7899 19.0597L13.0817 15.631L16.3611 14.2993L18.9319 14.483L21.1106 14.7662L22.8672 15.5162L23.5607 21.7614Z" fill="#27160C"/>
    <path d="M18.7946 24.5924L12.2366 23.7373L10.9093 34.2286L17.4673 35.0837L18.7946 24.5924Z" fill="#B5845B"/>
    <path d="M11.5512 26.8585C11.5512 26.8585 12.2599 30.6775 15.2829 31.4505C16.2253 31.6877 17.2506 31.4122 17.8235 30.6239C17.9818 30.4096 18.0949 30.1647 18.1326 29.8891C18.2759 28.7871 15.4111 26.8585 15.4111 26.8585H11.5512Z" fill="#A8754B"/>
    <path d="M16.1725 29.5754L15.8333 29.5294C12.0714 29.0396 9.41019 25.542 9.89268 21.723L10.2772 18.6923C10.7596 14.8733 14.2049 12.1717 17.9668 12.6615L18.306 12.7074C22.0679 13.1972 24.7291 16.6948 24.2466 20.5138L23.8621 23.5445C23.3797 27.3635 19.9344 30.0652 16.1725 29.5754Z" fill="#B5845B"/>
    <path d="M10.6317 20.9655C10.6317 20.9655 15.351 19.4042 15.2304 14.0239C15.2304 14.0239 15.5319 10.0136 11.4006 13.7254C7.26932 17.4373 10.6317 20.9655 10.6317 20.9655Z" fill="#27160C"/>
    <path d="M11.6719 22.4303C11.506 23.716 10.3526 24.6268 9.07854 24.4584C7.81202 24.29 6.9149 23.1191 7.08076 21.8333C7.24661 20.5475 8.40004 19.6368 9.67411 19.8052C10.9406 19.9659 11.8378 21.1445 11.6719 22.4303Z" fill="#B5845B"/>
    <path d="M13.1873 18.2664L12.9762 19.9654C12.4937 22.3609 11.4986 21.6339 11.1367 20.6007L13.1873 18.2664Z" fill="#27160C"/>
    <path d="M24.9705 17.4046C24.9705 17.4046 20.1532 21.0706 13.0893 15.6367C8.21922 11.8942 15.5847 10.5472 15.5847 10.5472L22.4525 11.9861L24.9705 17.4046Z" fill="#27160C"/>
    <path d="M10.918 34.2159C10.918 34.2159 15.0418 41.6856 17.9668 39.3896C21.1256 36.9099 13.9939 32.0424 13.9939 32.0424L10.918 34.2159Z" fill="#B5845B"/>
    <path d="M12.7423 49.4359C12.7423 49.4359 15.2904 54.2038 17.0319 57.9463L35.6076 56.8595C35.6076 56.8595 39.2941 53.7982 42.1814 56.385L39.3318 59.8596L16.0745 65.0869C15.1849 65.2858 14.2576 65.0256 13.6017 64.3981C11.5436 62.4235 7.06553 57.8238 4.89435 53.1323L12.7423 49.4359Z" fill="#B5845B"/>
    <path d="M64.3005 42.0755H41.4729C40.719 42.0755 40.0707 42.6112 39.9199 43.3536L35.6227 63.8263C35.4117 64.8289 36.1655 65.7779 37.1757 65.7779H60.3878C61.1493 65.7779 61.8051 65.2268 61.9484 64.4692L65.8686 43.9965C66.0495 43.0015 65.2956 42.0755 64.3005 42.0755Z" fill="#B2B2B2"/>
    <path d="M65.6121 42.0755H42.7845C42.0306 42.0755 41.3823 42.6112 41.2315 43.3536L36.9344 63.8263C36.7233 64.8289 37.4772 65.7779 38.4874 65.7779H61.6994C62.4609 65.7779 63.1167 65.2268 63.26 64.4692L67.1802 43.9965C67.3611 43.0015 66.6148 42.0755 65.6121 42.0755Z" fill="#D1D1D1"/>
    <path d="M36.2258 64.031H20.6279C20.153 64.031 19.7685 64.4213 19.7685 64.9035C19.7685 65.3856 20.153 65.776 20.6279 65.776H36.5273L36.2258 64.031Z" fill="#B2B2B2"/>
    <path d="M51.4768 53.3964C51.4768 54.7894 52.5926 55.9221 53.9646 55.9221C55.3367 55.9221 56.4525 54.7894 56.4525 53.3964C56.4525 52.0035 55.3367 50.8708 53.9646 50.8708C52.5926 50.8708 51.4768 51.9959 51.4768 53.3964Z" fill="#DFDFDF"/>
    <path d="M4.89439 34.3246C4.5853 34.4623 -5.6449 39.5671 4.41945 55.3866C4.41945 55.3866 10.85 55.4937 14.5742 50.6338C14.5818 50.6338 13.3454 30.5591 4.89439 34.3246Z" fill="#FFD686"/>
    <path d="M26.9756 120.033C27.1113 119.62 27.5561 119.467 27.8577 119.735C28.4457 120.263 29.5011 120.914 31.0541 120.753C32.675 120.592 33.2781 119.62 33.5118 118.924C33.6324 118.556 33.9792 118.373 34.2883 118.526L44.1039 123.531C44.6994 123.837 45.1668 124.404 45.393 125.108C45.6116 125.773 45.1744 126.485 44.5562 126.47L27.6013 125.995C26.9304 125.98 26.4253 125.314 26.4781 124.541L26.757 120.745C26.7645 120.684 26.7721 120.623 26.7947 120.562L26.9756 120.033Z" fill="#FD6C75"/>
    <path d="M51.7257 113.485C51.7558 113.049 52.1403 112.781 52.4946 112.965C53.1958 113.317 54.3794 113.661 55.8419 113.095C57.3572 112.506 57.6964 111.411 57.7417 110.677C57.7643 110.294 58.0508 110.018 58.39 110.087L69.1555 112.314C69.8113 112.452 70.4069 112.873 70.814 113.493C71.1985 114.075 70.9573 114.878 70.3617 115.024L53.8742 119.072C53.2259 119.233 52.5625 118.728 52.4193 117.963L51.7106 114.228C51.6955 114.166 51.6955 114.105 51.6955 114.036L51.7257 113.485Z" fill="#FD6C75"/>
</svg>
